<mxfile host="app.diagrams.net" modified="2024-04-19T17:37:22.445Z" agent="Mozilla/5.0 (X11; Ubuntu; Linux x86_64; rv:125.0) Gecko/20100101 Firefox/125.0" etag="hKFGd-BTShlk1L6dh_dr" version="24.2.5" type="github">
  <diagram name="Page-1" id="5wNfrocpncal_ENUbVDi">
    <mxGraphModel dx="1434" dy="766" grid="1" gridSize="10" guides="1" tooltips="1" connect="1" arrows="1" fold="1" page="1" pageScale="1" pageWidth="850" pageHeight="1100" math="0" shadow="0">
      <root>
        <mxCell id="0" />
        <mxCell id="1" parent="0" />
        <mxCell id="nIHRb_h8EGxtnhW7rng_-12" style="edgeStyle=orthogonalEdgeStyle;rounded=0;orthogonalLoop=1;jettySize=auto;html=1;entryX=1;entryY=0.5;entryDx=0;entryDy=0;exitX=0.5;exitY=1;exitDx=0;exitDy=0;" edge="1" parent="1" source="nIHRb_h8EGxtnhW7rng_-1" target="nIHRb_h8EGxtnhW7rng_-6">
          <mxGeometry relative="1" as="geometry" />
        </mxCell>
        <mxCell id="nIHRb_h8EGxtnhW7rng_-1" value="&lt;div&gt;Power Wheelchair&lt;/div&gt;&lt;div&gt;(Plant)&lt;br&gt;&lt;/div&gt;" style="rounded=0;whiteSpace=wrap;html=1;" vertex="1" parent="1">
          <mxGeometry x="620" y="200" width="90" height="70" as="geometry" />
        </mxCell>
        <mxCell id="nIHRb_h8EGxtnhW7rng_-7" style="edgeStyle=orthogonalEdgeStyle;rounded=0;orthogonalLoop=1;jettySize=auto;html=1;entryX=0;entryY=0.5;entryDx=0;entryDy=0;" edge="1" parent="1" source="nIHRb_h8EGxtnhW7rng_-2" target="nIHRb_h8EGxtnhW7rng_-1">
          <mxGeometry relative="1" as="geometry" />
        </mxCell>
        <mxCell id="nIHRb_h8EGxtnhW7rng_-2" value="Loop controller + safety" style="rounded=0;whiteSpace=wrap;html=1;" vertex="1" parent="1">
          <mxGeometry x="420" y="205" width="120" height="60" as="geometry" />
        </mxCell>
        <mxCell id="nIHRb_h8EGxtnhW7rng_-3" value="Sequence Controller" style="rounded=0;whiteSpace=wrap;html=1;" vertex="1" parent="1">
          <mxGeometry x="250" y="205" width="120" height="60" as="geometry" />
        </mxCell>
        <mxCell id="nIHRb_h8EGxtnhW7rng_-4" value="User interface" style="rounded=0;whiteSpace=wrap;html=1;" vertex="1" parent="1">
          <mxGeometry x="70" y="205" width="120" height="60" as="geometry" />
        </mxCell>
        <mxCell id="nIHRb_h8EGxtnhW7rng_-14" value="" style="edgeStyle=orthogonalEdgeStyle;rounded=0;orthogonalLoop=1;jettySize=auto;html=1;" edge="1" parent="1" source="nIHRb_h8EGxtnhW7rng_-5" target="nIHRb_h8EGxtnhW7rng_-3">
          <mxGeometry relative="1" as="geometry" />
        </mxCell>
        <mxCell id="nIHRb_h8EGxtnhW7rng_-5" value="Lidar + Camera Driver" style="rounded=0;whiteSpace=wrap;html=1;" vertex="1" parent="1">
          <mxGeometry x="250" y="320" width="120" height="60" as="geometry" />
        </mxCell>
        <mxCell id="nIHRb_h8EGxtnhW7rng_-13" value="" style="edgeStyle=orthogonalEdgeStyle;rounded=0;orthogonalLoop=1;jettySize=auto;html=1;" edge="1" parent="1" source="nIHRb_h8EGxtnhW7rng_-6" target="nIHRb_h8EGxtnhW7rng_-2">
          <mxGeometry relative="1" as="geometry" />
        </mxCell>
        <mxCell id="nIHRb_h8EGxtnhW7rng_-6" value="IMU" style="rounded=0;whiteSpace=wrap;html=1;" vertex="1" parent="1">
          <mxGeometry x="420" y="320" width="120" height="60" as="geometry" />
        </mxCell>
      </root>
    </mxGraphModel>
  </diagram>
</mxfile>
